<svg width="343" height="98" viewBox="0 0 343 98" fill="none" xmlns="http://www.w3.org/2000/svg">
<path fill-rule="evenodd" clip-rule="evenodd" d="M152.174 44.0836V27.017C152.174 25.0688 152.784 23.4712 154.003 22.2245C155.223 20.9774 156.781 20.3539 158.678 20.3539C160.575 20.3539 162.085 20.9677 163.208 22.1951C164.331 23.4225 164.892 25.0299 164.892 27.017V44.0836H170.99V26.1402C170.99 22.7115 170.032 19.9547 168.115 17.87C166.199 15.7853 163.634 14.743 160.421 14.743C156.897 14.743 154.149 15.912 152.174 18.25V0.248444H146.077V44.0836H152.174ZM126.158 44.7264C129.178 44.7264 131.694 43.9668 133.707 42.4472C135.721 40.8884 136.727 38.726 136.727 35.9594C136.727 33.9723 136.117 32.326 134.897 31.0209C133.678 29.7154 131.694 28.4782 128.945 27.3095L126.216 26.199C124.783 25.6143 123.796 25.0786 123.254 24.5915C122.712 24.1045 122.441 23.5103 122.441 22.8088C122.441 20.9778 123.738 20.0621 126.332 20.0621C128.926 20.0621 131.152 21.0362 133.011 22.9844L136.321 19.1853C133.843 16.2241 130.552 14.7433 126.448 14.7433C123.506 14.7433 121.096 15.4935 119.218 16.9935C117.34 18.4935 116.402 20.51 116.402 23.0429C116.402 24.9911 116.992 26.5982 118.173 27.8645C119.354 29.1311 121.241 30.3096 123.835 31.4005L126.738 32.628C128.248 33.2515 129.293 33.8068 129.874 34.2938C130.455 34.7809 130.746 35.4139 130.746 36.1934C130.746 37.2064 130.32 37.9954 129.468 38.5605C128.616 39.1252 127.513 39.4079 126.158 39.4079C123.409 39.4079 120.737 38.044 118.144 35.3166L114.659 39.1742C117.486 42.8758 121.319 44.7264 126.158 44.7264ZM202.842 41.2197C200.5 43.5577 197.548 44.7264 193.986 44.7264C190.347 44.7264 187.356 43.5672 185.014 41.2491C182.671 38.9307 181.501 35.8621 181.501 32.0436V15.3861H187.54V32.5111C187.54 34.4593 188.14 36.0374 189.34 37.2452C190.54 38.4531 192.089 39.0573 193.986 39.0573C195.806 39.0573 197.306 38.4531 198.486 37.2452C199.667 36.0374 200.258 34.4593 200.258 32.5111V15.3861H206.356V32.0436C206.356 35.8232 205.184 38.8817 202.842 41.2197ZM229.119 44.7264C230.475 44.7264 232.159 44.5123 234.172 44.0836V38.8817C232.314 39.0766 231.055 39.1739 230.397 39.1739C228.461 39.1739 227.039 38.7942 226.129 38.0343C225.219 37.2746 224.764 35.9985 224.764 34.206V20.7049H233.243V15.3861H224.764V7.84648H218.608V15.3861H213.963V20.7049H218.608V34.7319C218.608 38.044 219.528 40.5378 221.367 42.2131C223.206 43.8887 225.79 44.7264 229.119 44.7264ZM257.865 44.0836C255.852 44.5123 254.168 44.7264 252.813 44.7264C249.483 44.7264 246.899 43.8887 245.061 42.2131C243.222 40.5378 242.302 38.044 242.302 34.7319V20.7049H237.656V15.3861H242.302V7.84648H248.458V15.3861H256.936V20.7049H248.458V34.206C248.458 35.9985 248.912 37.2746 249.822 38.0343C250.732 38.7942 252.155 39.1739 254.091 39.1739C254.749 39.1739 256.007 39.0766 257.865 38.8817V44.0836ZM272.442 44.0836V0.248444H266.345V44.0836H272.442ZM308.504 40.1091C305.291 43.1872 301.497 44.7264 297.122 44.7264C292.786 44.7264 289.147 43.2943 286.204 40.4304C283.262 37.5665 281.791 34.0111 281.791 29.7641C281.714 25.6335 283.146 22.0782 286.088 19.0974C289.031 16.1167 292.515 14.6653 296.541 14.743C300.296 14.743 303.433 15.9998 305.949 18.5128C308.466 21.0261 309.724 24.1531 309.724 27.8935C309.724 29.0237 309.569 30.3096 309.259 31.7511H288.005C288.392 34.0892 289.428 35.93 291.112 37.2743C292.796 38.6186 294.857 39.2907 297.296 39.2907C300.316 39.2907 303.084 38.1609 305.601 35.9009L308.504 40.1091ZM303.627 26.9579H288.122C288.587 24.8151 289.564 23.1104 291.054 21.8438C292.545 20.5775 294.297 19.9446 296.31 19.9446C298.362 19.9446 300.084 20.5775 301.478 21.8438C302.872 23.1104 303.588 24.8151 303.627 26.9579ZM328.887 33.5629L314.377 63.1197H307.409L325.404 29.1794L315.591 15.3857H322.557L328.945 24.8543L336.031 7.40577H343L332.373 29.2378L343 44.0833H336.031L328.887 33.5629Z" fill="black"/>
<path fill-rule="evenodd" clip-rule="evenodd" d="M75.9404 2.15161C72.3343 0.761631 68.4186 0 64.3262 0H32.4608C14.5332 0 0 14.6155 0 32.6445V64.7668C0 71.7821 2.20032 78.2803 5.94473 83.6017L27.2908 60.2733V60.2729C29.6747 57.6676 29.5595 53.6268 27.0318 51.1635H27.0314L16.6435 41.0397C12.7813 37.2758 12.6844 31.0756 16.4272 27.1916C20.17 23.3075 26.3351 23.2099 30.1973 26.9738L40.5854 37.0976L40.5857 37.0979C50.6973 46.9523 51.1572 63.1153 41.6229 73.5358L21.5166 95.5095C24.9358 96.7409 28.6204 97.4114 32.4608 97.4114H64.3262C82.2537 97.4114 96.787 82.7961 96.787 64.7668V32.6445C96.787 25.874 94.7374 19.5847 91.2281 14.3701L70.5545 36.964L70.5542 36.9644C68.1709 39.5694 68.2861 43.6102 70.8139 46.0738L81.2016 56.1973C85.0638 59.9612 85.1609 66.1614 81.4178 70.0454C77.6751 73.9298 71.5098 74.0271 67.6476 70.2632L57.2599 60.1397C47.1483 50.285 46.688 34.1217 56.2221 23.7015H56.2224L75.9404 2.15161Z" fill="#101010"/>
<path d="M237.719 74.0131H240.263V78.4021C240.263 79.2502 240.507 79.8545 240.995 80.2149C241.482 80.5542 242.15 80.7238 242.998 80.7238C243.359 80.7238 243.762 80.6602 244.207 80.533C244.652 80.4057 245.023 80.2573 245.32 80.0877C245.447 80.2149 245.564 80.3739 245.67 80.5648C245.776 80.7556 245.829 80.9782 245.829 81.2327C245.829 81.6991 245.553 82.0808 245.002 82.3776C244.451 82.6744 243.687 82.8229 242.712 82.8229C241.228 82.8229 240.019 82.4942 239.086 81.8369C238.175 81.1796 237.719 80.0877 237.719 78.5611V74.0131ZM239.023 70.133V68.0339H245.479C245.543 68.1187 245.606 68.2565 245.67 68.4473C245.733 68.6382 245.765 68.8396 245.765 69.0516C245.765 69.3909 245.68 69.6559 245.511 69.8467C245.341 70.0376 245.108 70.133 244.811 70.133H239.023ZM240.263 74.9672H237.719V63.4541C237.825 63.4117 237.984 63.3693 238.196 63.3269C238.429 63.2632 238.673 63.2314 238.927 63.2314C239.373 63.2314 239.701 63.3269 239.913 63.5177C240.146 63.6873 240.263 63.9735 240.263 64.3764V74.9672Z" fill="black"/>
<path d="M224.112 70.4506V75.4756H221.567V70.6414C221.567 70.1537 221.652 69.7721 221.822 69.4964C222.013 69.1996 222.32 68.9134 222.744 68.6377C223.295 68.2773 224.048 67.9698 225.002 67.7154C225.956 67.4398 227.017 67.3019 228.183 67.3019C229.879 67.3019 230.727 67.726 230.727 68.5741C230.727 68.7861 230.695 68.9876 230.632 69.1784C230.568 69.348 230.483 69.4964 230.377 69.6237C230.165 69.5812 229.889 69.5388 229.55 69.4964C229.211 69.454 228.872 69.4328 228.533 69.4328C227.557 69.4328 226.698 69.5388 225.956 69.7509C225.214 69.9417 224.599 70.1749 224.112 70.4506ZM221.567 74.0126L224.112 74.3943V82.3454C224.006 82.3878 223.847 82.4302 223.635 82.4726C223.423 82.5362 223.189 82.568 222.935 82.568C222.49 82.568 222.15 82.4832 221.917 82.3135C221.684 82.1227 221.567 81.8259 221.567 81.423V74.0126Z" fill="black"/>
<path d="M213.656 75.0622C213.656 76.6312 213.36 77.9988 212.766 79.1649C212.172 80.3311 211.335 81.2322 210.253 81.8683C209.172 82.5044 207.9 82.8224 206.437 82.8224C204.974 82.8224 203.691 82.5044 202.589 81.8683C201.507 81.2322 200.67 80.3311 200.076 79.1649C199.482 77.9988 199.186 76.6312 199.186 75.0622C199.186 73.472 199.482 72.1044 200.076 70.9594C200.691 69.7933 201.539 68.8922 202.62 68.2561C203.723 67.62 204.995 67.3019 206.437 67.3019C207.879 67.3019 209.14 67.62 210.222 68.2561C211.303 68.8922 212.14 69.7933 212.734 70.9594C213.349 72.1044 213.656 73.472 213.656 75.0622ZM206.437 69.401C205.016 69.401 203.882 69.9099 203.034 70.9276C202.207 71.9242 201.793 73.3023 201.793 75.0622C201.793 76.8432 202.196 78.232 203.002 79.2285C203.829 80.2251 204.974 80.7233 206.437 80.7233C207.879 80.7233 209.002 80.2251 209.808 79.2285C210.635 78.2108 211.049 76.822 211.049 75.0622C211.049 73.3023 210.635 71.9242 209.808 70.9276C209.002 69.9099 207.879 69.401 206.437 69.401Z" fill="black"/>
<path d="M184.94 82.8224C184.029 82.8224 183.17 82.6846 182.364 82.409C181.58 82.1545 181.007 81.8683 180.647 81.5502V79.1967C181.071 79.5996 181.601 79.96 182.237 80.2781C182.894 80.5749 183.679 80.7233 184.59 80.7233C186.075 80.7233 187.262 80.2781 188.152 79.3876C189.064 78.4758 189.52 77.0234 189.52 75.0304C189.52 73.631 189.287 72.5284 188.82 71.7227C188.375 70.8958 187.771 70.3021 187.008 69.9417C186.265 69.5812 185.46 69.401 184.59 69.401C183.827 69.401 183.18 69.4964 182.65 69.6873C182.12 69.8781 181.643 70.0901 181.219 70.3233V80.8824H178.675V70.387C178.675 69.9629 178.749 69.6237 178.897 69.3692C179.046 69.1148 179.353 68.8497 179.82 68.5741C180.392 68.2561 181.071 67.9698 181.855 67.7154C182.661 67.4398 183.573 67.3019 184.59 67.3019C185.99 67.3019 187.251 67.5776 188.375 68.1289C189.52 68.6589 190.421 69.4964 191.078 70.6414C191.757 71.7651 192.096 73.2281 192.096 75.0304C192.096 76.769 191.789 78.2214 191.174 79.3876C190.58 80.5325 189.743 81.3912 188.661 81.9637C187.58 82.5362 186.34 82.8224 184.94 82.8224ZM181.219 80.0236V88.1337C181.113 88.1761 180.954 88.2185 180.742 88.2609C180.53 88.3245 180.297 88.3564 180.042 88.3564C179.597 88.3564 179.258 88.2609 179.025 88.0701C178.791 87.8793 178.675 87.5824 178.675 87.1796V79.96L181.219 80.0236Z" fill="black"/>
<path d="M163.602 82.8224C162.691 82.8224 161.832 82.6846 161.026 82.409C160.242 82.1545 159.669 81.8683 159.309 81.5502V79.1967C159.733 79.5996 160.263 79.96 160.899 80.2781C161.556 80.5749 162.341 80.7233 163.253 80.7233C164.737 80.7233 165.924 80.2781 166.815 79.3876C167.726 78.4758 168.182 77.0234 168.182 75.0304C168.182 73.631 167.949 72.5284 167.482 71.7227C167.037 70.8958 166.433 70.3021 165.67 69.9417C164.928 69.5812 164.122 69.401 163.253 69.401C162.489 69.401 161.843 69.4964 161.312 69.6873C160.782 69.8781 160.305 70.0901 159.881 70.3233V80.8824H157.337V70.387C157.337 69.9629 157.411 69.6237 157.56 69.3692C157.708 69.1148 158.015 68.8497 158.482 68.5741C159.054 68.2561 159.733 67.9698 160.517 67.7154C161.323 67.4398 162.235 67.3019 163.253 67.3019C164.652 67.3019 165.913 67.5776 167.037 68.1289C168.182 68.6589 169.083 69.4964 169.741 70.6414C170.419 71.7651 170.758 73.2281 170.758 75.0304C170.758 76.769 170.451 78.2214 169.836 79.3876C169.242 80.5325 168.405 81.3912 167.323 81.9637C166.242 82.5362 165.002 82.8224 163.602 82.8224ZM159.881 80.0236V88.1337C159.775 88.1761 159.616 88.2185 159.404 88.2609C159.192 88.3245 158.959 88.3564 158.704 88.3564C158.259 88.3564 157.92 88.2609 157.687 88.0701C157.454 87.8793 157.337 87.5824 157.337 87.1796V79.96L159.881 80.0236Z" fill="black"/>
<path d="M135.876 77.0344V74.1402H138.42V76.9072C138.42 78.2642 138.781 79.2395 139.502 79.8332C140.223 80.4269 141.219 80.7237 142.491 80.7237C143.339 80.7237 144.06 80.6389 144.654 80.4693C145.248 80.2784 145.714 80.0876 146.053 79.8968V74.1402H148.598V79.8014C148.598 80.2466 148.534 80.6071 148.407 80.8827C148.301 81.1371 148.025 81.3916 147.58 81.646C147.113 81.9217 146.446 82.1867 145.576 82.4411C144.707 82.6956 143.668 82.8228 142.459 82.8228C141.06 82.8228 139.862 82.6213 138.866 82.2185C137.89 81.7944 137.148 81.1584 136.639 80.3102C136.13 79.4409 135.876 78.349 135.876 77.0344ZM148.598 75.794H146.053V67.7794C146.159 67.737 146.318 67.6946 146.53 67.6521C146.764 67.5885 146.997 67.5567 147.23 67.5567C147.697 67.5567 148.036 67.6521 148.248 67.843C148.481 68.0126 148.598 68.3094 148.598 68.7335V75.794ZM138.42 75.794H135.876V67.7794C135.982 67.737 136.141 67.6946 136.353 67.6521C136.586 67.5885 136.83 67.5567 137.085 67.5567C137.53 67.5567 137.858 67.6521 138.07 67.843C138.304 68.0126 138.42 68.3094 138.42 68.7335V75.794Z" fill="black"/>
<path d="M128.043 78.497C128.043 79.854 127.545 80.9142 126.549 81.6775C125.552 82.4408 124.11 82.8224 122.223 82.8224C120.612 82.8224 119.297 82.5786 118.28 82.0909C117.262 81.5821 116.753 81.0308 116.753 80.4371C116.753 80.1827 116.817 79.9388 116.944 79.7056C117.092 79.4512 117.304 79.2497 117.58 79.1013C118.152 79.5042 118.82 79.8752 119.584 80.2145C120.347 80.5537 121.216 80.7233 122.191 80.7233C124.397 80.7233 125.499 79.9812 125.499 78.497C125.499 77.8822 125.308 77.3839 124.927 77.0022C124.566 76.5994 124.025 76.3131 123.305 76.1435L120.665 75.4438C119.371 75.1258 118.428 74.6381 117.834 73.9808C117.241 73.3023 116.944 72.4648 116.944 71.4683C116.944 70.3445 117.4 69.3692 118.311 68.5423C119.223 67.7154 120.612 67.3019 122.478 67.3019C123.474 67.3019 124.344 67.408 125.086 67.62C125.828 67.8108 126.4 68.0758 126.803 68.4151C127.227 68.7331 127.439 69.083 127.439 69.4646C127.439 69.7403 127.365 69.9841 127.217 70.1961C127.089 70.4082 126.909 70.5672 126.676 70.6732C126.421 70.5036 126.093 70.3233 125.69 70.1325C125.308 69.9205 124.852 69.7509 124.322 69.6237C123.792 69.4752 123.209 69.401 122.573 69.401C121.64 69.401 120.887 69.5812 120.315 69.9417C119.743 70.3021 119.456 70.811 119.456 71.4683C119.456 71.9348 119.615 72.3482 119.933 72.7087C120.273 73.0479 120.803 73.3023 121.524 73.472L123.718 74.0126C125.16 74.3519 126.241 74.8926 126.962 75.6347C127.683 76.3556 128.043 77.3097 128.043 78.497Z" fill="black"/>
</svg>
